<?xml version="1.0" standalone="no"?><!DOCTYPE svg PUBLIC "-//W3C//DTD SVG 1.1//EN" "http://www.w3.org/Graphics/SVG/1.1/DTD/svg11.dtd"><svg t="1559188121981" class="icon" style="" viewBox="0 0 1024 1024" version="1.1" xmlns="http://www.w3.org/2000/svg" p-id="16410" xmlns:xlink="http://www.w3.org/1999/xlink" width="200" height="200"><defs><style type="text/css"></style></defs><path d="M893.456828 709.055005" p-id="16411"></path><path d="M491.889987 337.939709" p-id="16412"></path><path d="M568.154951 338.993714" p-id="16413"></path><path d="M965.013561 474.715839c-11.138688-16.711614-34.046421-32.896224-63.555501-53.674457-30.029944-21.143553-67.405179-47.448662-98.269118-79.860862l-7.16519-7.543813C748.694817 283.762809 689.805592 221.691101 631.974465 221.691101c-12.541641 0-25.608238 6.537903-40.730657 14.107299-19.363 9.685593-41.306778 20.670785-65.314565 21.22951-24.799826-0.558725-46.743604-11.543917-66.097394-21.22951-15.122419-7.569396-28.189016-14.107299-40.730657-14.107299-57.805544 0-116.669186 62.020542-163.971515 111.851461l-7.251148 7.638981c-30.631648 32.171724-67.276243 58.338686-96.729042 79.370699-43.405579 31.002085-74.768891 53.401234-70.080102 82.20014 1.116427 6.897084 6.125511 12.21009 12.404518 14.115486 5.832845 7.604188 13.774725 13.060457 22.846334 19.105127 20.352537 13.556761 54.407144 36.412304 109.890806 109.313661 9.874905 12.971429 38.622646 46.545082 92.238774 74.872245 56.360635 29.780257 122.698506 45.981241 197.22692 47.246047 0.946558 0.163729 1.918699 1.388627 2.889817 1.388627 0.068562 0 0.146333 0 0.214894 0l8.455579-1.251503 8.730848-1.159406c0.989537-0.051165 2.02103-0.01228 3.010567-0.174985 174.74079-2.778276 257.199827-77.079516 290.867624-121.285321 52.446489-68.867484 87.791485-92.817965 108.909455-107.141182 11.815093-8.012488 21.88852-14.982226 28.456099-25.579585 2.435469-2.514263 4.172019-5.750981 4.7727-9.454326 0.050142-0.312108 0.039909-0.608867 0.082888-0.918929 0.884137-2.717901 1.63115-5.609765 2.14485-8.807596C975.439004 485.368456 971.503369 478.145961 965.013561 474.715839zM171.629939 449.222211c30.65723-21.89159 68.824505-49.151443 101.761662-83.740216l7.294127-7.68196c40.412408-42.571584 95.748714-100.875478 138.414443-100.875478 4.223185 0 15.715937 5.755074 24.962531 10.382465 20.403702 10.210549 48.360428 24.206308 81.865519 24.936949 32.713053-0.731664 60.669778-14.7264 81.08269-24.936949 9.238408-4.627391 20.739347-10.382465 24.962531-10.382465 42.691311 0 98.06241 58.356083 138.492214 100.961436l7.208169 7.586792c33.255405 34.932604 72.205509 62.346977 103.499236 84.376713 11.270694 7.93574 24.550139 17.291828 35.363416 25.846668-23.946388-1.804089-53.173037-7.107885-83.612303-12.694113-43.448558-7.973602-88.376817-16.214287-127.877459-16.214287-18.683525 0-47.294143 6.718005-80.419588 14.494109-34.692127 8.146541-74.011644 17.375739-99.026364 17.453511-25.13547-0.077771-64.454988-9.30697-99.137905-17.453511-33.134655-7.776104-61.745273-14.494109-80.428797-14.494109-39.483246 0-84.505649 8.240685-128.040165 16.2061-29.68202 5.427616-58.252729 10.626012-81.877799 12.574387C146.93449 466.869127 160.298869 457.316563 171.629939 449.222211zM801.820782 623.601774c-29.943986 39.319517-104.299461 105.563244-265.844717 107.464547-0.748037 0.008186-1.497097 0.068562-2.219551 0.171915l-6.520507-0.077771-6.227842 0.077771c-0.731664-0.103354-1.470491-0.161682-2.227738-0.169869-175.583994-2.176572-251.161297-89.89745-264.528746-107.454314-54.219879-71.233368-89.919962-97.894587-112.586195-113.225761 24.970718-2.234901 53.293787-7.363711 82.677001-12.737092 41.986253-7.68196 85.401042-15.629979 121.692596-15.629979 14.606673 0 43.973514 6.889921 72.377424 13.564947 38.304398 8.988722 77.916581 18.287505 107.189278 18.382673 29.151947-0.094144 68.77334-9.392928 107.077737-18.390859 28.40391-6.66684 57.770751-13.556761 72.368214-13.556761 36.300764 0 79.620385 7.948019 121.511471 15.638165 31.917944 5.855358 62.608943 11.43033 89.070618 13.257955C892.415103 526.730493 855.128895 553.600467 801.820782 623.601774z" p-id="16414"></path></svg>