<?xml version="1.0" standalone="no"?><!DOCTYPE svg PUBLIC "-//W3C//DTD SVG 1.1//EN" "http://www.w3.org/Graphics/SVG/1.1/DTD/svg11.dtd">
<svg style=""
    class="icon"
    height="200"
    p-id="7705"
    t="1559187998625"
    version="1.1"
    viewBox="0 0 1024 1024"
    width="200"
    xmlns="http://www.w3.org/2000/svg">
    <defs>
        <style type="text/css"></style>
    </defs>
    <path
        d="M495.4 899.6c-94.7 0-184.1-18.9-251.9-53.3-74-37.6-114.7-89.6-114.7-146.4 0-35.8 16.6-70.4 48-100.5-7.1-17.5-10.7-35.2-10.7-52.7 0-34.1 13.8-67.2 39.8-95.7 18.7-20.6 43.9-38.7 73.4-52.8-0.9-7.2-1.3-14.5-1.3-21.7 0-26.2 8.1-51.5 24.1-75.4 14.3-21.4 34.2-40.6 59.2-57.1 48.2-31.9 110.8-50.2 171.6-50.2 13.7 0 25.6 8.3 29.7 20.6 4.2 12.6-1.1 26.5-12.8 33.7-9.1 5.7-23.1 19.1-23.1 26.3 0 14.3 14.6 21.5 43.4 21.5 78.8 0 143 59.1 143 131.7 0 9.9-1.2 19.8-3.6 29.5 73.6 28.3 115.5 73 115.5 123.8 0 19.2-6.3 46-33.8 71.6 58.5 33 71.2 71.5 71.2 98.6 0 34.9-20.7 83.4-119.1 116.2-63.4 20.7-151.3 32.3-247.9 32.3z m37.2-681c-56 0-113.6 16.8-157.8 46-22.2 14.7-39.7 31.5-52.2 50.1-13.2 19.7-19.9 40.4-19.9 61.6 0 8.9 0.8 18 2.4 26.9l1.7 9.7-9 4c-30 13.2-55.5 30.8-73.7 50.8-21.8 23.9-33.3 51.2-33.3 78.9 0 16.6 4.1 33.6 12.1 50.5l4 8.5-7.1 6.2c-30.3 26.6-46.3 57-46.3 88 0 47 35.9 91.1 101 124.1 64.3 32.7 149.8 50.6 240.6 50.6 94 0 179.1-11.1 239.6-31.3 66.7-22.2 102-54.2 102-92.4 0-30.6-22.7-58.5-65.7-80.7-2.6-1.3-5.4-2.8-8.4-4.2l-19.3-9.1 17.3-12.4c25.7-18.4 38.8-39.9 38.8-63.9 0-20.4-9.3-39.7-27.7-57.6-19-18.5-47.4-34.6-82.3-46.7l-11.9-4.1 4.3-11.9c3.8-10.7 5.8-21.8 5.8-32.9 0-58.8-52.9-106.7-118-106.7-17.4 0-31.8-2.6-42.8-7.6-16.5-7.7-25.6-21.5-25.6-38.9 0-25.5 33.5-46.7 34.9-47.6 1.5-0.9 2.8-2.6 2.2-4.5-0.4-1.9-2.9-3.4-5.7-3.4z"
        fill=""
        p-id="7706"></path>
    <path
        d="M593.1 279.5l-21.2-13.2c0.6-0.9 14.8-25.1-0.5-55-23.2-45.4 2.1-67.2 3.1-68.1l16 19.2 0.3-0.3c-0.4 0.4-10.9 11 2.8 37.7 22 42.9 0.5 78.2-0.5 79.7zM505.6 195.1l-20.4-14.5-0.1 0.1c0.6-0.8 13.9-21-0.5-46-19.4-33.5-6.3-55.8 3.4-62.9L502.8 92l0.3-0.3c-1 0.9-9.3 9 3.1 30.4 22.8 39.2 0.4 71.6-0.6 73zM379.9 242.9L359.8 228l-0.1 0.1c0.6-0.8 13.5-19.5-0.6-42.7-19.8-32.5-6.4-54.1 3.5-61l14.3 20.5s0.1-0.1 0.4-0.3c-0.9 0.8-8.8 8.1 3.2 27.8 23.1 37.9 0.4 69.2-0.6 70.5z"
        fill=""
        p-id="7707"></path>
</svg>